<?xml version="1.0" encoding="iso-8859-1"?>
<!-- Uploaded to: SVG Repo, www.svgrepo.com, Generator: SVG Repo Mixer Tools -->
<svg fill="#000000" height="800px" width="800px" version="1.1" id="Layer_1" xmlns="http://www.w3.org/2000/svg" xmlns:xlink="http://www.w3.org/1999/xlink" 
	 viewBox="0 0 511.999 511.999" xml:space="preserve">
<g>
	<g>
		<path d="M313.241,15.052c-0.469-0.266-0.941-0.529-1.414-0.788c-5.129-2.817-11.573-0.943-14.39,4.186
			c-2.818,5.131-0.943,11.574,4.186,14.391c0.388,0.213,0.776,0.429,1.161,0.647c1.652,0.937,3.447,1.381,5.219,1.381
			c3.69,0,7.276-1.931,9.227-5.371C320.119,24.407,318.332,17.94,313.241,15.052z"/>
	</g>
</g>
<g>
	<g>
		<path d="M192.636,106.812c-5.852,0-10.597,4.744-10.597,10.597v8.43c0,5.853,4.745,10.597,10.597,10.597
			s10.597-4.744,10.597-10.597v-8.43C203.233,111.556,198.487,106.812,192.636,106.812z"/>
	</g>
</g>
<g>
	<g>
		<path d="M319.363,106.812c-5.852,0-10.597,4.744-10.597,10.597v8.43c0,5.853,4.745,10.597,10.597,10.597
			s10.597-4.744,10.597-10.597v-8.43C329.96,111.556,325.215,106.812,319.363,106.812z"/>
	</g>
</g>
<g>
	<g>
		<path d="M426.569,365.272l-54.31-196.516v-47.868v-4.629c0-31.062-12.095-60.257-34.058-82.206
			c-4.14-4.137-10.848-4.135-14.987,0.004c-4.137,4.139-4.135,10.849,0.004,14.986c6.962,6.958,12.694,14.814,17.125,23.297
			c-6.437-2.792-13.529-4.349-20.981-4.349c-29.174,0-52.909,23.73-52.909,52.897v6.826c-3.34-0.911-6.867-1.39-10.455-1.39
			c-3.591,0-7.115,0.495-10.455,1.409v-6.846c0-29.167-23.734-52.897-52.909-52.897c-7.425,0-14.494,1.545-20.912,4.318
			c15.895-30.352,47.705-51.115,84.277-51.115c7.68,0,15.316,0.917,22.697,2.726c5.687,1.395,11.423-2.087,12.815-7.771
			c1.392-5.684-2.087-11.421-7.771-12.814C274.71,1.122,265.376,0,255.999,0c-64.106,0-116.26,52.154-116.26,116.26v4.629v47.868
			L85.43,365.272c-5.639,20.408-1.672,41.91,10.884,58.995c11.174,15.204,27.767,24.81,46.131,26.945
			c4.085,15.463,12.596,29.146,24.101,39.593h-25.776c-5.852,0-10.597,4.744-10.597,10.597s4.745,10.597,10.597,10.597h115.219
			h115.242c5.852,0,10.597-4.744,10.597-10.597s-4.745-10.597-10.597-10.597h-25.776c11.505-10.448,20.016-24.13,24.101-39.594
			c18.366-2.136,34.958-11.743,46.13-26.945C428.242,407.183,432.208,385.68,426.569,365.272z M139.74,429.28h-0.001
			c-10.453-2.468-19.762-8.603-26.347-17.564c-8.686-11.819-11.432-26.69-7.533-40.799L139.74,248.32V429.28z M244.844,151.752
			c1.788-2.045,5.658-4.232,11.155-4.232c4.189,0,8.14,1.354,10.565,3.622c0.001,0.001,0.003,0.002,0.004,0.003
			c0.785,0.733,1.706,1.849,1.878,3.159c-1.055,2.649-6.27,8.065-12.444,13.143c-6.124-5.051-11.398-10.523-12.45-13.145
			C243.662,153.463,244.096,152.607,244.844,151.752z M351.066,170.195v260.184c-0.001,33.319-27.103,60.427-60.417,60.427h-24.065
			v-19.08c0-5.853-4.745-10.597-10.597-10.597c-5.852,0-10.597,4.744-10.597,10.597v19.08h-24.043
			c-33.314,0-60.416-27.107-60.416-60.426V170.195v-49.306c0-17.481,14.221-31.703,31.702-31.703
			c17.487,0,31.715,14.221,31.715,31.703v22.396c0,0.497,0.046,0.981,0.112,1.459c-1.391,3.158-2.133,6.521-2.133,9.991
			c0,7.381,4.759,15.174,14.98,24.527c6.202,5.676,12.344,10.003,12.603,10.184c1.828,1.282,3.957,1.923,6.088,1.923
			c2.131,0,4.261-0.641,6.088-1.923c0.258-0.181,6.401-4.507,12.603-10.184c10.221-9.353,14.98-17.146,14.98-24.527
			c0-3.465-0.735-6.852-2.129-10.016c0.064-0.471,0.108-0.946,0.108-1.434v-22.396c0-17.481,14.228-31.703,31.715-31.703
			c17.481,0,31.702,14.221,31.702,31.703V170.195z M398.607,411.716c-6.585,8.96-15.893,15.094-26.347,17.563V248.32l33.882,122.596
			C410.039,385.026,407.293,399.897,398.607,411.716z"/>
	</g>
</g>
</svg>