<?xml version="1.0" encoding="iso-8859-1"?>
<!-- Uploaded to: SVG Repo, www.svgrepo.com, Generator: SVG Repo Mixer Tools -->
<!DOCTYPE svg PUBLIC "-//W3C//DTD SVG 1.1//EN" "http://www.w3.org/Graphics/SVG/1.1/DTD/svg11.dtd">
<svg fill="#000000" version="1.1" id="Capa_1" xmlns="http://www.w3.org/2000/svg" xmlns:xlink="http://www.w3.org/1999/xlink" 
	 width="800px" height="800px" viewBox="0 0 612.007 612.007"
	 xml:space="preserve">
<g>
	<g>
		<path d="M182.776,209.346c-8.784,0-17.541,3.917-24.66,11.029c-13.813,13.819-14.75,32.931-2.225,45.456
			c6.208,6.209,14.5,9.627,23.338,9.627c9.033,0,17.554-3.546,23.992-9.984c13.146-13.146,13.307-34.381,0.351-47.331
			C197.904,212.474,190.515,209.346,182.776,209.346z M182.682,244.933c-1.281,1.281-2.71,1.47-3.444,1.47
			c-0.769,0-1.875-0.195-2.791-1.119c-0.155-0.155-0.243-0.263-0.29-0.33c0.047-0.458,0.533-2.049,2.515-4.031
			c1.941-1.941,3.505-2.461,4.031-2.515c0.067,0.047,0.175,0.135,0.33,0.283C184.657,240.322,184.495,243.12,182.682,244.933z"/>
		<path d="M465.714,241.428c-0.93-7.625-4.664-14.905-10.812-21.046c-7.112-7.112-15.869-11.028-24.653-11.028
			c-7.738,0-15.127,3.128-20.803,8.804c-6.323,6.324-9.741,14.771-9.627,23.783c0.114,8.865,3.66,17.231,9.978,23.547
			c6.438,6.438,14.958,9.984,23.992,9.984l0,0c8.844,0,17.129-3.418,23.338-9.626C463.772,259.198,466.82,250.528,465.714,241.428z
			 M436.585,245.291c-0.923,0.923-2.029,1.119-2.791,1.119c-0.741,0-2.163-0.189-3.444-1.47c-1.254-1.254-1.456-2.663-1.47-3.384
			c-0.014-0.782,0.176-1.914,1.119-2.852c0.155-0.155,0.263-0.242,0.33-0.29c0.513,0.047,2.083,0.566,4.031,2.514
			c1.982,1.982,2.468,3.573,2.515,4.032C436.828,245.021,436.74,245.136,436.585,245.291z"/>
		<path d="M438.203,544.064l-16.975-23.588c-20.271,14.588-74.08,21.234-115.498,21.234c-59.081,0-101.288-11.002-115.499-21.229
			l-16.975,23.588c22.887,16.471,73.648,26.703,132.466,26.703C364.555,570.765,415.316,560.533,438.203,544.064z"/>
		<path d="M508.879,281.585c-17.204,0.627-31.091,6.795-32.621,7.497l-15.943,7.321l10.159,14.298
			c2.306,3.242,4.423,6.52,6.384,9.83c4.739,8.002,8.468,16.145,11.123,24.248c6.283,19.131,6.661,38.006,0.594,53.99
			c-6.074,16.018-18.107,27.686-34.785,33.754c-5.116,1.861-10.624,3.162-16.401,3.883c-7.436,0.93-15.31,0.916-23.365-0.08
			c-15.505-1.916-31.104-7.221-46.366-15.762c-19.907-11.145-37.199-26.797-50.001-45.268l-11.938-17.23l-11.932,17.236
			c-12.801,18.471-30.093,34.125-50,45.268c-15.262,8.541-30.861,13.848-46.366,15.762c-7.827,0.965-15.485,1.004-22.732,0.148
			c-6-0.707-11.723-2.029-17.028-3.957c-16.678-6.066-28.711-17.744-34.785-33.754c-6.222-16.395-5.656-35.816,1.099-55.453
			c2.622-7.617,6.175-15.27,10.624-22.785c1.955-3.305,4.079-6.588,6.384-9.83l10.159-14.298l-15.943-7.321
			c-1.53-0.701-15.417-6.87-32.621-7.497c-25.179-0.93-44.944,10.631-55.73,32.527l26.068,12.842
			c1.193-2.42,2.528-4.551,4.018-6.418c5.568-6.977,13.307-10.158,23.897-9.93c1.969,0.047,3.896,0.209,5.744,0.451
			c-1.699,3.143-3.27,6.303-4.719,9.479c-13.806,30.262-16.253,61.898-6.141,88.547c9.033,23.811,27.511,41.836,52.016,50.756
			c4.941,1.799,10.044,3.207,15.275,4.24c38.931,28.312,89.423,43.844,142.996,43.844c53.674,0,104.261-15.592,143.226-44.006
			c4.961-1.018,9.809-2.367,14.507-4.08c24.512-8.918,42.982-26.943,52.016-50.754c7.854-20.709,8.116-44.432,1.368-68.174
			c0-0.014,0-0.021,0-0.035h-0.007c-1.935-6.801-4.436-13.604-7.51-20.338c-1.449-3.176-3.02-6.336-4.719-9.479
			c1.632-0.215,3.324-0.363,5.057-0.432c10.914-0.396,18.889,2.777,24.578,9.91c1.49,1.867,2.832,4.004,4.018,6.418l26.069-12.842
			C553.829,292.217,534.044,280.655,508.879,281.585z M281.307,430.359c8.858-6.963,17.056-14.736,24.424-23.176
			c7.368,8.445,15.565,16.213,24.424,23.176c1.826,1.436,3.681,2.832,5.562,4.193c-7.658,2.002-17.144,3.41-28.711,3.41h-0.493
			c-12.336,0-22.307-1.59-30.221-3.809C277.99,432.914,279.655,431.654,281.307,430.359z M306,478.855
			c-31.232,0-61.17-5.877-87.677-16.939c8.933-2.266,17.898-5.42,26.763-9.459c12.33,7.139,32.169,14.555,61.433,14.555h0.492
			c28.55,0,48.133-7.059,60.517-14.035c8.603,3.842,17.299,6.842,25.961,9.02C367.022,473.011,337.158,478.855,306,478.855z"/>
		<path d="M251.666,320.531c0.006,0.033,0.006,0.066,0.013,0.1c3.418,20.137,24.282,13.496,29.439-0.1
			c0.58-1.537,0.971-3.156,1.105-4.842c1.321-16.603,8.319-34.387,8.319-34.387S248.012,298.169,251.666,320.531z"/>
		<path d="M329.325,315.136c0.114,1.895,0.546,3.701,1.22,5.395c5.15,12.814,24.653,18.537,28.98,0
			c0.088-0.379,0.176-0.762,0.25-1.168c4.26-22.508-38.068-38.424-38.068-38.424S328.341,298.567,329.325,315.136z"/>
		<path d="M545.612,204.708c-1.524-26.985-8.825-52.238-21.755-75.145c-13.071-23.163-31.562-43.407-54.954-60.166
			c-22.044-15.794-47.647-27.956-76.089-36.146C365.02,25.249,335.816,21.399,306,21.824c-29.81-0.425-59.02,3.424-86.814,11.426
			c-28.441,8.19-54.045,20.352-76.089,36.146c-23.399,16.766-41.884,37.01-54.955,60.166c-12.93,22.907-20.23,48.16-21.754,75.145
			c-13.827,11.332-47.546,43.468-65.687,99.791L0,306.669v283.545h29.062V311.275c19.745-59.047,59.391-86.936,59.755-87.186
			l6.222-4.227l0.142-7.523c1.146-61.042,35.897-98.584,64.851-119.328c19.341-13.86,41.951-24.572,67.204-31.846
			c25.098-7.22,51.517-10.685,78.549-10.287H306h0.216c27.019-0.411,53.451,3.061,78.556,10.287
			c25.246,7.267,47.856,17.986,67.204,31.846c28.947,20.743,63.698,58.285,64.852,119.328l0.142,7.523l6.222,4.227
			c0.397,0.27,39.841,27.599,59.755,87.186v278.939h29.062V306.669l-0.701-2.17C593.158,248.176,559.438,216.04,545.612,204.708z"/>
		<path d="M168.95,351.392l-0.688-14.514c-0.701,0.033-17.292,0.883-33.45,7.516l11.036,26.885
			c11.393-4.672,23.702-5.367,23.824-5.373L168.95,351.392z"/>
		<path d="M191.122,400.455l-9.229-11.217l-9.202-11.246c-0.54,0.445-13.354,11.016-22.375,25.982l24.889,14.998
			C181.563,408.429,191.027,400.529,191.122,400.455z"/>
		<path d="M215.411,377.662c-0.29,0.635-7.105,15.781-8.588,33.195l28.954,2.459c1.038-12.268,6.047-23.539,6.094-23.646
			l-13.233-5.98L215.411,377.662z"/>
		<path d="M477.902,344.4c-16.165-6.633-32.756-7.482-33.45-7.516l-1.409,29.021c0.122,0.006,12.438,0.701,23.824,5.373
			L477.902,344.4z"/>
		<path d="M421.619,400.474c0.095,0.074,9.539,7.955,15.89,18.498l24.889-14.998c-9.02-14.967-21.835-25.537-22.374-25.982
			L421.619,400.474z"/>
		<path d="M370.838,389.662c0.047,0.115,5.056,11.379,6.094,23.648l28.954-2.461c-1.477-17.412-8.299-32.561-8.589-33.193
			L370.838,389.662z"/>
		<path d="M306.303,220.334c-24.403,0-48.105,5.164-68.539,14.938l12.539,26.217c16.543-7.914,35.904-12.094,56-12.094
			c20.089,0,39.457,4.18,56,12.094l12.539-26.217C354.409,225.498,330.707,220.334,306.303,220.334z"/>
	</g>
</g>
</svg>