<!DOCTYPE svg PUBLIC "-//W3C//DTD SVG 1.1//EN" "http://www.w3.org/Graphics/SVG/1.1/DTD/svg11.dtd">
<!-- Uploaded to: SVG Repo, www.svgrepo.com, Transformed by: SVG Repo Mixer Tools -->
<svg fill="#000000" height="256px" width="256px" version="1.1" id="Layer_1" xmlns="http://www.w3.org/2000/svg" xmlns:xlink="http://www.w3.org/1999/xlink" viewBox="0 0 512.022 512.022" xml:space="preserve">
<g id="SVGRepo_bgCarrier" stroke-width="0"/>
<g id="SVGRepo_tracerCarrier" stroke-linecap="round" stroke-linejoin="round" stroke="#CCCCCC" stroke-width="12.288528000000001"/>
<g id="SVGRepo_iconCarrier"> <g> <g> <path d="M490.944,310.198c-14.4-14.4-69.44-42.027-118.187-64.96c-6.293-23.573-17.067-41.813-32.64-54.827 c0.107-0.213,0.213-0.32,0.32-0.533c0.853-2.453,1.813-4.8,2.773-7.147c3.947-9.493,8.427-20.267,8.427-38.827 c0-47.147-17.92-68.267-42.347-77.547V48.011c0-3.947,0-8,0.213-10.453c2.453-0.213,6.507-0.213,10.453-0.213 c5.867,0,10.667-4.8,10.667-10.667c0-5.867-4.8-10.667-10.667-10.667c-27.2,0-32,4.8-32,32v12.907 c-10.56-1.387-21.333-2.027-32-1.92c-10.667-0.107-21.44,0.533-32,1.92V48.011c0-27.2-4.8-32-32-32 c-5.867,0-10.667,4.8-10.667,10.667c0,5.867,4.8,10.667,10.667,10.667c3.947,0,8,0,10.453,0.213 c0.213,2.453,0.213,6.507,0.213,10.453v18.347c-24.32,9.387-42.24,30.4-42.24,77.547c0,18.56,4.48,29.333,8.427,38.827 c0.96,2.347,2.027,4.693,2.773,7.147c0.107,0.32,0.32,0.533,0.427,0.853c-15.36,13.013-26.027,31.04-32.213,54.293 c-48.853,22.933-104.32,50.667-118.72,65.173c-29.12,29.12-27.947,77.867,2.773,108.587c14.613,14.613,34.133,23.147,54.72,23.893 h2.347c19.307,0.213,37.973-7.467,51.627-21.12c4.16-4.16,9.387-11.627,15.253-21.333c23.36,58.24,64.64,95.787,107.733,95.787 c43.627,0,84.907-37.867,108.16-96.853c6.187,10.24,11.627,18.133,15.893,22.4c13.653,13.653,32.32,21.333,51.733,21.12h2.347 c20.587-0.64,40.107-9.28,54.507-23.893C518.891,388.064,520.064,339.318,490.944,310.198z M202.731,89.824v11.52 c0,5.867,4.8,10.667,10.667,10.667c5.867,0,10.667-4.8,10.667-10.667v-18.88c9.067-1.493,19.733-2.133,32-2.133 s22.933,0.533,32,2.133v18.88c0,5.867,4.8,10.667,10.667,10.667c5.867,0,10.667-4.8,10.667-10.667v-11.52 c14.187,8.64,21.013,24.747,21.013,54.08c0,14.293-3.307,22.187-6.72,30.613c-0.533,1.387-1.067,2.773-1.6,4.16 c-17.707-8.853-39.467-13.333-65.707-13.333c-26.453,0-48.32,4.48-66.133,13.44c-0.533-1.387-1.067-2.88-1.707-4.267 c-3.52-8.427-6.72-16.32-6.72-30.613C181.824,114.571,188.544,98.464,202.731,89.824z M117.504,406.411 c-10.027,10.027-23.573,15.04-38.293,14.827c-15.147-0.533-29.44-6.827-40.107-17.6c-22.4-22.4-23.68-57.6-2.773-78.4 c15.36-15.253,100.587-56.107,166.933-85.76C173.611,305.824,132.758,391.158,117.504,406.411z M255.531,474.678 c-38.08,0-75.2-39.573-93.867-99.093c29.867-55.68,66.667-139.947,72.213-152.64c2.347-5.44-0.107-11.733-5.547-14.08 c-2.667-1.173-5.76-1.173-8.533,0c-5.76,2.56-26.667,11.627-52.907,23.573c14.72-31.467,42.987-45.867,89.387-45.867 c46.4,0,74.453,14.507,89.173,45.973c-26.347-12.053-47.36-21.227-53.227-23.787c-5.44-2.347-11.733,0.107-13.973,5.547 c-1.173,2.667-1.173,5.76,0,8.427c5.44,12.587,41.813,95.68,71.467,151.36C331.371,433.824,293.504,474.678,255.531,474.678z M473.024,403.638c-10.667,10.773-24.96,17.067-40.107,17.6c-14.827,0.213-28.267-4.8-38.293-14.827 c-5.013-5.013-12.8-17.6-21.973-34.56c0.107-0.427,0.213-0.747,0.32-1.173l-1.173-0.32 c-18.773-34.667-43.307-86.933-62.933-130.987c66.347,29.653,151.68,70.507,166.933,85.76 C496.704,346.144,495.424,381.344,473.024,403.638z"/> </g> </g> </g>
</svg>