<?xml version="1.0" ?>
<!-- Uploaded to: SVG Repo, www.svgrepo.com, Generator: SVG Repo Mixer Tools -->
<svg width="800px" height="800px" viewBox="0 0 512 512" version="1.1" xml:space="preserve" xmlns="http://www.w3.org/2000/svg" xmlns:xlink="http://www.w3.org/1999/xlink">
<style type="text/css">
	.st0{display:none;}
	.st1{fill:#474747;}
</style>
<g class="st0" id="Layer_1"/>
<g id="Layer_2">
<g>
<path class="st1" d="M277.38,436.39c-0.42-0.17-0.86-0.31-1.31-0.4c-0.9-0.18-1.83-0.18-2.74,0c-0.44,0.09-0.88,0.23-1.31,0.4    c-0.42,0.17-0.83,0.39-1.21,0.64c-0.38,0.26-0.74,0.55-1.06,0.87c-0.32,0.33-0.62,0.68-0.87,1.07c-0.25,0.38-0.47,0.78-0.64,1.21    c-0.18,0.42-0.31,0.86-0.4,1.31c-0.09,0.45-0.14,0.91-0.14,1.36c0,0.46,0.05,0.92,0.14,1.37c0.09,0.45,0.22,0.89,0.4,1.31    c0.17,0.42,0.39,0.83,0.64,1.21s0.55,0.74,0.87,1.06c0.32,0.33,0.68,0.62,1.06,0.87c0.38,0.26,0.79,0.47,1.21,0.65    c0.43,0.17,0.87,0.31,1.31,0.4c0.45,0.09,0.92,0.13,1.37,0.13c1.84,0,3.65-0.74,4.95-2.05c0.32-0.32,0.62-0.68,0.87-1.06    s0.47-0.79,0.64-1.21c0.18-0.42,0.31-0.86,0.4-1.31c0.09-0.45,0.14-0.91,0.14-1.37c0-1.84-0.75-3.64-2.05-4.95    c-0.32-0.32-0.68-0.61-1.06-0.87C278.21,436.78,277.8,436.56,277.38,436.39z"/>
<path class="st1" d="M89.57,243.19c-1.3,3.64,0.59,7.65,4.23,8.95c3.64,1.31,7.65-0.59,8.95-4.23    c6.35-17.72,19.14-32.13,36.01-40.57c2.99-1.5,4.51-4.91,3.61-8.13c-1.19-4.28-1.79-8.75-1.79-13.28    c0-27.52,22.39-49.91,49.9-49.91c0.49,0,0.99,0.01,1.48,0.03c3.26,0.12,6.17-2.02,7.02-5.17c5.1-18.88,22.34-32.07,41.93-32.07    c11.53,0,22.39,4.47,30.57,12.59c1.52,1.51,3.64,2.24,5.77,1.98c2.12-0.26,4.02-1.47,5.13-3.3c10.1-16.52,27.66-26.38,46.99-26.38    c30.34,0,55.02,24.69,55.02,55.04c0,0.21,0,0.41-0.01,0.62c-0.08,2.11,0.8,4.14,2.4,5.53c1.59,1.39,3.72,1.99,5.8,1.62    c2.93-0.51,5.98-0.77,9.05-0.77c29.15,0,52.87,23.72,52.87,52.87c0,18.51-9.42,35.35-25.2,45.06c-2.89,1.78-4.09,5.37-2.84,8.53    c3.22,8.17,4.86,16.82,4.86,25.7c0,20.28-8.76,39.41-23.79,52.64c-0.01-0.02-0.02-0.04-0.03-0.06c-0.11-0.22-0.24-0.43-0.35-0.64    c-0.35-0.65-0.71-1.3-1.08-1.93c-0.18-0.31-0.37-0.62-0.56-0.93c-0.31-0.53-0.63-1.06-0.96-1.58c-0.21-0.34-0.43-0.67-0.65-1    c-0.31-0.48-0.63-0.97-0.95-1.44c-0.23-0.34-0.47-0.68-0.7-1.01c-0.32-0.46-0.65-0.91-0.98-1.37c-0.25-0.34-0.5-0.67-0.75-1    c-0.33-0.44-0.67-0.88-1.02-1.32c-0.26-0.32-0.51-0.65-0.77-0.97c-0.35-0.43-0.71-0.86-1.07-1.29c-0.26-0.31-0.52-0.62-0.79-0.92    c-0.38-0.43-0.76-0.86-1.15-1.28c-0.26-0.28-0.52-0.57-0.78-0.85c-0.42-0.45-0.85-0.88-1.28-1.32c-0.24-0.25-0.48-0.5-0.72-0.74    c-0.54-0.53-1.09-1.05-1.64-1.57c-0.14-0.13-0.28-0.27-0.43-0.41c-0.7-0.65-1.41-1.28-2.13-1.9c-0.2-0.17-0.41-0.34-0.62-0.51    c-0.52-0.44-1.05-0.88-1.58-1.31c-0.28-0.22-0.56-0.44-0.84-0.66c-0.47-0.37-0.94-0.73-1.42-1.09c-0.31-0.23-0.63-0.46-0.94-0.68    c-0.46-0.33-0.92-0.66-1.38-0.98c-0.33-0.23-0.67-0.45-1-0.68c-0.46-0.31-0.92-0.61-1.38-0.9c-0.34-0.22-0.69-0.43-1.04-0.65    c-0.47-0.29-0.94-0.57-1.41-0.85c-0.35-0.21-0.7-0.41-1.06-0.61c-0.48-0.27-0.97-0.54-1.46-0.8c-0.35-0.19-0.7-0.38-1.06-0.57    c-0.51-0.27-1.02-0.52-1.54-0.78c-0.34-0.17-0.68-0.34-1.02-0.5c-0.56-0.27-1.13-0.52-1.7-0.78c-0.3-0.14-0.6-0.28-0.91-0.41    c-0.76-0.33-1.52-0.64-2.29-0.95c-0.12-0.05-0.24-0.1-0.36-0.15c-0.89-0.35-1.79-0.68-2.69-1c-0.28-0.1-0.56-0.19-0.84-0.28    c-0.63-0.21-1.26-0.43-1.9-0.63c-0.35-0.11-0.71-0.21-1.07-0.32c-0.57-0.17-1.14-0.34-1.71-0.49c-0.39-0.11-0.77-0.2-1.16-0.3    c-0.55-0.14-1.1-0.28-1.66-0.41c-0.4-0.09-0.81-0.18-1.21-0.27c-0.55-0.12-1.1-0.24-1.65-0.35c-0.41-0.08-0.82-0.16-1.23-0.23    c-0.55-0.1-1.11-0.19-1.67-0.28c-0.41-0.07-0.83-0.13-1.24-0.19c-0.57-0.08-1.14-0.15-1.71-0.23c-0.41-0.05-0.81-0.1-1.22-0.15    c-0.59-0.06-1.19-0.12-1.79-0.17c-0.39-0.03-0.77-0.07-1.16-0.1c-0.66-0.05-1.32-0.08-1.99-0.11c-0.33-0.02-0.66-0.04-0.99-0.05    c-1-0.04-1.99-0.06-3-0.06c-1.38,0-2.77,0.04-4.19,0.11c-7.99-18.2-21.73-33.45-39.15-43.29c-13.77-7.79-29.45-11.92-45.36-11.92    c-1.12,0-2.23,0.02-3.39,0.06c-32.43,1.18-61.48,19.1-77.17,47.21c-6.64-1.61-13.46-2.42-20.33-2.42c-4.34,0-8.61,0.33-12.81,0.95    c-1.78,0.26-3.54,0.56-5.29,0.93c-0.2,0.04-0.4,0.1-0.59,0.14c-12.71,2.79-24.59,8.43-35,16.72c-20.72,16.48-32.6,41.1-32.6,67.54    c0,47.58,38.71,86.29,86.29,86.29h94.28c3.87,0,7-3.13,7-7s-3.13-7-7-7h-94.28c-39.86,0-72.29-32.43-72.29-72.29    c0-22.15,9.96-42.78,27.32-56.59c12.89-10.27,28.44-15.69,44.98-15.69c7.43,0,14.77,1.13,21.83,3.36    c3.33,1.05,6.92-0.51,8.43-3.65c12.62-26.39,38.58-43.45,67.72-44.51c0.97-0.03,1.95-0.05,2.92-0.05c13.5,0,26.8,3.49,38.47,10.1    c16.11,9.11,28.51,23.66,34.93,40.96c1.12,3.03,4.18,4.9,7.38,4.52c2.7-0.32,5.36-0.48,7.92-0.48c9.25,0,18.13,1.86,26.25,5.28    c0.53,0.22,1.06,0.46,1.59,0.69c0.74,0.34,1.48,0.69,2.21,1.05c1.22,0.61,2.42,1.24,3.6,1.92c0.01,0,0.01,0.01,0.02,0.01    c12.82,7.4,23.09,19.03,28.82,33.54c3.1,7.84,4.67,16.14,4.67,24.66c0,37.04-30.13,67.17-67.16,67.17c-1.07,0-2.17-0.04-3.11-0.09    c-0.48-0.02-0.96,0.01-1.43,0.09h-33.06c-3.87,0-7,3.13-7,7s3.13,7,7,7h34.17c0.29,0,0.57-0.02,0.85-0.05    c0.81,0.03,1.68,0.05,2.58,0.05c44.75,0,81.16-36.41,81.16-81.17c0-8.45-1.3-16.72-3.84-24.67    c20.22-15.89,32.14-40.23,32.14-66.13c0-8.74-1.32-17.29-3.93-25.5c17.08-12.58,27.12-32.29,27.12-53.78    c0-36.87-30-66.87-66.87-66.87c-1.2,0-2.4,0.03-3.59,0.09c-3.48-34.84-32.95-62.13-68.68-62.13c-21.5,0-41.26,9.73-54.29,26.37    c-9.83-7.31-21.71-11.27-34.18-11.27c-24.08,0-45.49,15.09-53.8,37.3c-33.67,1.76-60.53,29.71-60.53,63.82    c0,3.89,0.35,7.75,1.04,11.53C109.92,207.75,96.51,223.81,89.57,243.19z"/>
<path class="st1" d="M237.47,172.35c0-13.39,10.89-24.28,24.28-24.28c3.87,0,7-3.13,7-7s-3.13-7-7-7    c-21.11,0-38.28,17.17-38.28,38.28c0,3.87,3.13,7,7,7S237.47,176.21,237.47,172.35z"/>
<path class="st1" d="M388.51,238.19c0.93,0.42,1.9,0.61,2.86,0.61c2.67,0,5.23-1.54,6.39-4.14c10.83-24.15,0-52.6-24.15-63.43    c-3.53-1.58-7.67,0-9.25,3.52c-1.58,3.53,0,7.67,3.52,9.25c17.1,7.67,24.77,27.82,17.1,44.93    C383.41,232.46,384.98,236.6,388.51,238.19z"/>
<path class="st1" d="M83.13,141.41c21.85,0,39.63-17.78,39.63-39.63s-17.78-39.63-39.63-39.63S43.5,79.93,43.5,101.78    S61.28,141.41,83.13,141.41z M83.13,76.15c14.13,0,25.63,11.5,25.63,25.63s-11.5,25.63-25.63,25.63s-25.63-11.5-25.63-25.63    S69,76.15,83.13,76.15z"/>
<path class="st1" d="M106.04,177.42c0-12.7-10.33-23.04-23.04-23.04c-12.7,0-23.04,10.33-23.04,23.04s10.33,23.04,23.04,23.04    C95.71,200.45,106.04,190.12,106.04,177.42z M73.97,177.42c0-4.98,4.05-9.04,9.04-9.04c4.98,0,9.04,4.05,9.04,9.04    s-4.05,9.04-9.04,9.04C78.02,186.45,73.97,182.4,73.97,177.42z"/>
<path class="st1" d="M162.32,313.24c-29.64,0-53.75,24.11-53.75,53.75c0,3.87,3.13,7,7,7s7-3.13,7-7    c0-21.92,17.83-39.75,39.75-39.75c3.87,0,7-3.13,7-7S166.19,313.24,162.32,313.24z"/>
</g>
</g>
</svg>