<!DOCTYPE svg PUBLIC "-//W3C//DTD SVG 1.1//EN" "http://www.w3.org/Graphics/SVG/1.1/DTD/svg11.dtd">
<!-- Uploaded to: SVG Repo, www.svgrepo.com, Transformed by: SVG Repo Mixer Tools -->
<svg fill="#000000" height="256px" width="256px" version="1.1" id="Layer_1" xmlns="http://www.w3.org/2000/svg" xmlns:xlink="http://www.w3.org/1999/xlink" viewBox="-51.2 -51.2 614.40 614.40" xml:space="preserve">
<g id="SVGRepo_bgCarrier" stroke-width="0"/>
<g id="SVGRepo_tracerCarrier" stroke-linecap="round" stroke-linejoin="round"/>
<g id="SVGRepo_iconCarrier"> <g> <g> <path d="M207.879,191.897l-1.691-1.691c-4.339-4.339-11.375-4.339-15.715,0c-4.34,4.339-4.339,11.375,0,15.715l1.692,1.691 c2.17,2.17,5.014,3.255,7.857,3.255c2.843,0,5.688-1.084,7.857-3.255C212.218,203.273,212.218,196.238,207.879,191.897z"/> </g> </g> <g> <g> <path d="M500.621,254.278h-51.67c-9.089-28.609-24.834-55.74-46.212-79.279l33.103-33.103c4.339-4.339,4.339-11.375,0-15.714 c-4.339-4.339-11.373-4.339-15.715,0l-33.118,33.117c-23.647-21.43-50.948-37.06-79.263-46.109V61.403 c0-6.137-4.976-11.112-11.112-11.112s-11.112,4.975-11.112,11.112v46.074c-24.334-4.734-48.887-4.558-72.043,0.973 c-2.325-3.202-4.901-6.22-7.704-9.015c-8.127-8.127-17.872-14.194-28.571-17.872c1.753-28.946-8.95-57.628-29.631-78.309 c-4.339-4.34-11.375-4.339-15.714,0c-4.339,4.339-4.34,11.375,0,15.714c15.528,15.528,23.86,36.829,23.283,58.544 c-20.56-0.667-40.637,7.121-55.44,21.924c-14.804,14.805-22.594,34.886-21.925,55.442c-21.713,0.578-43.014-7.757-58.541-23.284 c-4.339-4.339-11.375-4.339-15.714,0c-4.339,4.339-4.34,11.375,0,15.714c19.216,19.216,45.341,29.828,72.167,29.828 c2.043,0,4.091-0.082,6.14-0.206c3.679,10.705,9.747,20.452,17.875,28.581c2.808,2.808,5.825,5.385,9.014,7.703 c-5.572,23.323-5.706,48.06-0.867,72.565H61.136c-6.137,0-11.112,4.975-11.112,11.112s4.975,11.112,11.112,11.112h52.484 c9.074,28.126,24.648,55.231,45.945,78.731l-33.65,33.65c-4.339,4.339-4.34,11.375,0,15.714c2.17,2.17,5.014,3.255,7.857,3.255 s5.688-1.086,7.857-3.255l33.635-33.635c23.391,21.249,50.331,36.934,78.747,46.051v52.374c0,6.137,4.976,11.112,11.112,11.112 s11.112-4.975,11.112-11.112v-46.652c6.265,1.222,12.572,2.137,18.903,2.712c5.47,0.497,10.876,0.743,16.217,0.743 c40.958-0.001,77.769-14.511,104.932-41.673c30.705-30.705,45.241-73.73,40.93-121.15c-0.559-6.151-1.437-12.279-2.606-18.369 h46.013c6.136,0,11.112-4.975,11.112-11.112S506.758,254.278,500.621,254.278z M115.417,189.796 c-7.445-7.444-12.443-16.802-14.456-27.07c-3.414-17.325,1.991-35.11,14.456-47.575c12.465-12.466,30.248-17.871,47.584-14.454 c10.259,2.012,19.617,7.01,27.072,14.465c0.217,0.217,0.417,0.449,0.629,0.669c-16.854,7.03-31.852,17.041-44.71,29.897 c-12.856,12.856-22.867,27.855-29.896,44.708C115.872,190.218,115.637,190.016,115.417,189.796z M408.045,392.065L230.516,214.536 c-4.34-4.339-11.375-4.339-15.714,0c-4.339,4.339-4.339,11.375,0,15.715L392.331,407.78 c-25.224,20.801-58.581,30.366-95.182,27.038c-41.493-3.772-82.056-23.562-114.218-55.725 c-47.406-47.406-67.257-113.47-50.572-168.308c5.794-19.061,15.668-35.663,29.349-49.343 c13.681-13.681,30.282-23.555,49.343-29.349c0.001,0,0.002-0.001,0.002-0.001c12.895-3.922,26.404-5.825,40.154-5.825 c44.715,0,91.895,20.138,128.152,56.386C441.993,245.297,453.655,336.687,408.045,392.065z"/> </g> </g> <g> <g> <path d="M195.659,236.248c-11.951-11.945-31.392-11.943-43.343,0.006c-11.947,11.948-11.947,31.389,0,43.337 c5.976,5.976,13.826,8.964,21.677,8.964c7.848,0,15.695-2.987,21.667-8.958c5.794-5.786,8.985-13.483,8.985-21.674 C204.644,249.731,201.453,242.034,195.659,236.248z M179.951,263.877c-3.287,3.287-8.635,3.287-11.921,0 c-3.284-3.284-3.284-8.627,0-11.909c1.643-1.643,3.801-2.465,5.96-2.465c2.159,0,4.317,0.821,5.96,2.465 c0.001,0.001,0.003,0.003,0.006,0.006c1.59,1.588,2.465,3.7,2.465,5.949C182.421,260.171,181.545,262.284,179.951,263.877z"/> </g> </g> <g> <g> <path d="M237.144,324.88c-5.786-5.79-13.481-8.98-21.669-8.98c-8.191,0-15.888,3.191-21.663,8.975 c-5.795,5.786-8.986,13.483-8.986,21.674c0,8.191,3.191,15.888,8.975,21.663c5.786,5.795,13.483,8.985,21.674,8.985 s15.888-3.191,21.663-8.974c5.795-5.786,8.985-13.483,8.985-21.674C246.124,338.36,242.935,330.665,237.144,324.88z M221.424,352.509c-1.588,1.59-3.7,2.465-5.949,2.465c-2.249,0-4.361-0.876-5.96-2.477c-1.59-1.588-2.466-3.7-2.466-5.949 c0.001-2.248,0.877-4.36,2.478-5.959c1.588-1.59,3.7-2.466,5.949-2.466c2.248,0,4.361,0.876,5.949,2.466 c0.003,0.003,0.008,0.008,0.011,0.011c1.59,1.588,2.465,3.7,2.465,5.949C223.9,348.796,223.025,350.91,221.424,352.509z"/> </g> </g> <g> <g> <path d="M325.776,366.366c-5.785-5.795-13.483-8.986-21.674-8.986c-8.191,0-15.89,3.191-21.669,8.98 c-5.79,5.79-8.979,13.488-8.979,21.674s3.189,15.883,8.979,21.673c5.785,5.786,13.481,8.972,21.669,8.972 c8.188,0,15.884-3.186,21.669-8.972c5.79-5.79,8.979-13.488,8.979-21.674C334.75,379.85,331.563,372.155,325.776,366.366z M310.056,393.995c-1.588,1.588-3.702,2.462-5.954,2.462s-4.367-0.875-5.954-2.462c-1.594-1.593-2.471-3.709-2.471-5.959 c-0.001-2.252,0.876-4.369,2.475-5.968c1.588-1.589,3.7-2.465,5.949-2.465c2.249,0,4.361,0.876,5.949,2.465 c0.002,0.002,0.004,0.004,0.006,0.007c1.595,1.593,2.471,3.709,2.471,5.96C312.528,390.285,311.651,392.402,310.056,393.995z"/> </g> </g> <g> <g> <path d="M408.168,283.974c-5.786-5.795-13.484-8.985-21.674-8.985c-8.191,0-15.89,3.191-21.67,8.979 c-5.79,5.789-8.979,13.487-8.979,21.673c0,8.187,3.189,15.884,8.979,21.674c5.975,5.975,13.821,8.962,21.67,8.96 c7.847,0,15.695-2.987,21.669-8.96c5.79-5.79,8.979-13.488,8.979-21.674S413.953,289.758,408.168,283.974z M392.448,311.602 c-3.284,3.285-8.626,3.282-11.909,0c-1.594-1.593-2.471-3.709-2.471-5.96c0.001-2.25,0.878-4.367,2.478-5.966 c1.588-1.59,3.7-2.465,5.949-2.465c2.248,0,4.361,0.876,5.954,2.471c1.594,1.593,2.471,3.709,2.471,5.959 C394.919,307.891,394.042,310.008,392.448,311.602z"/> </g> </g> <g> <g> <path d="M366.683,195.341c-11.951-11.949-31.396-11.952-43.355,0.006c-11.931,11.948-11.931,31.389,0,43.337 c0.004,0.003,0.008,0.008,0.012,0.011c5.972,5.965,13.819,8.947,21.666,8.947c7.848,0,15.698-2.985,21.677-8.953 C378.635,226.738,378.635,207.292,366.683,195.341z M350.975,222.97c-3.288,3.284-8.636,3.286-11.926,0.006 c-3.279-3.29-3.277-8.638,0-11.92c3.287-3.287,8.635-3.287,11.92,0C354.256,214.342,354.256,219.689,350.975,222.97z"/> </g> </g> <g> <g> <path d="M278.056,153.861c-5.79-5.791-13.486-8.98-21.673-8.98s-15.884,3.19-21.674,8.98 c-11.941,11.939-11.944,31.379-0.006,43.333c0.001,0.001,0.003,0.003,0.004,0.004c5.79,5.79,13.488,8.98,21.674,8.98 c8.186,0,15.883-3.189,21.674-8.979c5.79-5.79,8.979-13.487,8.979-21.673C287.035,167.337,283.844,159.643,278.056,153.861z M262.343,181.484c-1.593,1.593-3.71,2.471-5.96,2.471c-2.249,0-4.364-0.877-5.957-2.467c-3.282-3.288-3.285-8.633-0.003-11.913 c1.593-1.593,3.709-2.471,5.96-2.471c2.25,0,4.367,0.878,5.967,2.477c1.59,1.588,2.465,3.699,2.465,5.945 C264.813,177.776,263.937,179.891,262.343,181.484z"/> </g> </g> </g>
</svg>